<?xml version="1.0" encoding="utf-8"?>
<!-- Svg Vector Icons : http://www.onlinewebfonts.com/icon -->
<!DOCTYPE svg PUBLIC "-//W3C//DTD SVG 1.1//EN" "http://www.w3.org/Graphics/SVG/1.1/DTD/svg11.dtd">
<svg version="1.1" xmlns="http://www.w3.org/2000/svg" x="0px" y="0px" viewBox="0 0 1000 1000">
<metadata> Svg Vector Icons : http://www.onlinewebfonts.com/icon </metadata>
<g><path d="M821,320.2C821,149.2,677,10,500,10c-177,0-321,139.2-321,310.2c0,150.9,112.1,277,260.1,304.6v80.7h-97.5c-33.6,0-60.9,26.4-60.9,58.8c0,32.5,27.3,58.9,60.9,58.9h97.5v107.9c0,32.5,27.3,58.8,60.9,58.8c33.6,0,60.9-26.4,60.9-58.8V823.2h97.4c33.6,0,60.9-26.4,60.9-58.9c0-32.5-27.3-58.8-60.9-58.8h-97.4v-80.7C708.9,597.3,821,471.2,821,320.2z M300.8,320.2c0-106.1,89.4-192.5,199.2-192.5c109.9,0,199.2,86.4,199.2,192.5c0,106.2-89.4,192.5-199.2,192.5C390.1,512.7,300.8,426.4,300.8,320.2z"/></g>
</svg>