<?xml version="1.0" encoding="utf-8"?>
<!-- Svg Vector Icons : http://www.onlinewebfonts.com/icon -->
<!DOCTYPE svg PUBLIC "-//W3C//DTD SVG 1.1//EN" "http://www.w3.org/Graphics/SVG/1.1/DTD/svg11.dtd">
<svg version="1.1" xmlns="http://www.w3.org/2000/svg" x="0px" y="0px" viewBox="0 0 1000 1000">
<g style="fill:#777777" transform="matrix(1 0 0 -1 0 1920)"><path d="M354.4,930c-31.2,0-61.6,4.1-91.4,12.3s-57.3,19.8-82.4,34.6c-25.1,14.9-48.3,32.9-69.5,54.1c-21.2,21.2-39.2,44.4-54.1,69.5c-14.9,25.1-26.4,52.6-34.6,82.4c-8.2,29.8-12.3,60.3-12.3,91.4c0,26.8,3,53.1,9,78.9c6,25.8,14.7,50,26,72.6c11.3,22.6,24.9,43.8,40.6,63.8c15.7,20,33.6,37.8,53.5,53.5s41.2,29.2,63.8,40.6c22.6,11.3,46.7,20,72.6,26c25.8,6,52.1,9,78.9,9c71.6,0,137-20.5,196-61.5L780.1,1787H662c-11.2,0-20.8,4-28.9,12.1c-8.1,8.1-12.1,17.7-12.1,28.9v41c0,11.2,4,20.8,12.1,28.9c8.1,8.1,17.7,12.1,28.9,12.1h287c7.4,0,14.2-1.8,20.5-5.5s11.3-8.7,15-15s5.5-13.1,5.5-20.5v-287c0-11.2-4-20.8-12.1-28.9c-8.1-8.1-17.7-12.1-28.9-12.1h-41c-7.4,0-14.2,1.8-20.5,5.5c-6.3,3.7-11.3,8.7-15,15c-3.7,6.3-5.5,13.1-5.5,20.5v118.1l-229.6-229.6c41-59,61.5-124.4,61.5-196c0-31.2-4.1-61.6-12.3-91.4c-8.2-29.8-19.7-57.3-34.6-82.4c-14.9-25.2-32.9-48.3-54.1-69.5c-21.2-21.2-44.4-39.2-69.5-54.1c-25.1-14.9-52.6-26.4-82.4-34.6C416.1,934.1,385.6,930,354.4,930z M354.4,1069.4c27.9,0,54.5,5.4,79.8,16.2c25.3,10.8,47.1,25.4,65.4,43.7c18.3,18.3,32.9,40.1,43.7,65.4c10.8,25.3,16.2,51.9,16.2,79.8c0,27.9-5.4,54.5-16.2,79.8c-10.8,25.3-25.4,47.1-43.7,65.4c-18.3,18.3-40.1,32.9-65.4,43.7c-25.3,10.8-51.9,16.2-79.8,16.2c-27.9,0-54.5-5.4-79.8-16.2c-25.3-10.8-47.1-25.4-65.4-43.7c-18.3-18.3-32.9-40.1-43.7-65.4c-10.8-25.3-16.2-51.9-16.2-79.8c0-27.9,5.4-54.5,16.2-79.8s25.4-47.1,43.7-65.4c18.3-18.3,40.1-32.9,65.4-43.7C300,1074.8,326.6,1069.4,354.4,1069.4z"/></g>
</svg>